<?xml version="1.0" encoding="UTF-8"?>
<svg width="436px" height="502px" viewBox="0 0 436 502" version="1.1" xmlns="http://www.w3.org/2000/svg" xmlns:xlink="http://www.w3.org/1999/xlink">
    <title>Group</title>
    <g id="Page-1" stroke="none" stroke-width="1" fill="none" fill-rule="evenodd">
        <g id="Group" transform="translate(16.492879, 0.000000)">
            <path d="M195.832661,482.588809 C303.528187,482.588809 379.605951,438.172679 379.605951,336 C379.605951,251.639644 343.187587,190.550044 264.102342,203.613523 C254.114275,205.263374 209.808531,224.548337 181.507121,223.925233 C153.42784,223.307019 103.558707,202.693832 94.5091982,200.30001 C10.2449132,178.009995 0.43689145,223.390152 0.43689145,309.218959 C0.43689145,411.391638 88.137135,482.588809 195.832661,482.588809 Z" id="Oval" fill="#FF6666"></path>
            <path d="M201.507121,124 C225.011739,101.786458 234.345073,81.1197912 229.507121,62 C224.669169,42.8802088 215.335835,22.2135421 201.507121,0 C186.817231,22.2135421 177.483897,42.8802088 173.507121,62 C169.530344,81.1197912 178.863677,101.786458 201.507121,124 Z" id="Oval" fill="#4CA34A"></path>
            <path d="M240.250926,67.5113993 C260.911535,61.3277645 278.998302,60.1435119 308.596261,60.1435119 C298.091685,79.1769319 298.091685,79.1769319 279.36863,104.941435 C260.645575,130.705938 221.820771,129.563051 214.089874,124 C238.398237,98.8854523 236.934819,85.1806441 240.250926,67.5113993 Z" id="Rectangle" fill="#4CA34A"></path>
            <path d="M121.250926,67.5113993 C141.911535,61.3277645 159.998302,60.1435119 189.596261,60.1435119 C179.091685,79.1769319 179.091685,79.1769319 160.36863,104.941435 C141.645575,130.705938 102.820771,129.563051 95.0898743,124 C119.398237,98.8854523 117.934819,85.1806441 121.250926,67.5113993 Z" id="Rectangle" fill="#4CA34A" transform="translate(142.343067, 93.700592) scale(-1, 1) translate(-142.343067, -93.700592) "></path>
            <path d="M280.984383,227.050917 C295.803867,227.050917 301.301186,230.218671 308.055788,236.214416 C314.81039,242.210162 325.798153,259.125558 327.604652,266.509844 C332.00819,284.509844 324.250661,290 317.507121,290 C313.151917,290 308.165674,285.518184 305.180043,278.77301 L304.897445,278.11326 C304.167806,276.351972 302.147923,273.104014 297.815338,271.031406 C293.401623,268.919988 284.625079,268.092146 280.984383,268.092146 C261.930559,268.092146 249.338707,260.71827 249.338707,249.672575 C249.338707,238.62688 266.1649,227.050917 280.984383,227.050917 Z" id="Path" fill="#FFCCCC"></path>
            <path d="M327.299703,323.265623 C332.822551,323.265623 335.686619,316.313526 335.686619,309.686109 C335.686619,303.058692 331.029968,299 325.507121,299 C319.984273,299 315.461924,302.558996 315.461924,309.186413 C315.461924,315.81383 321.776856,323.265623 327.299703,323.265623 Z" id="Oval" fill="#FFCCCC"></path>
            <path d="M326.963338,347.860236 C330.553189,347.860236 332.47138,343.446653 332.47138,339.028375 C332.47138,334.610097 329.596971,332 326.007121,332 C322.41727,332 319.401746,334.610097 319.401746,339.028375 C319.401746,343.446653 323.373487,347.860236 326.963338,347.860236 Z" id="Oval" fill="#FFCCCC"></path>
            <path d="M50.6016972,194.939592 C46.1514809,195.392524 42.2938998,196.131012 39.0289539,197.155056 C35.7640081,198.179099 32.3175018,199.616977 28.6894353,201.468688 C4.17686295,234.461461 -4.62784872,272.850284 2.27530025,316.635159 C12.6300237,382.31247 12.5156811,384.918394 62.8765621,426.828659 C111.515722,473.661944 128.695201,472.828663 196.507121,478.274649 C235.231614,478.274649 272.107984,470.109448 307.136231,453.779045 C258.904163,462.509994 217.084351,463.339669 181.676795,456.268071 C128.56546,445.660674 106.330494,426.828659 83.853386,401.970209 C73.5629479,390.589548 40.7281392,354.446023 32.5011134,294.572653 C28.1242742,262.719572 34.1578021,229.508552 50.6016972,194.939592 Z" id="Path-2" fill="#D94747"></path>
            <path d="M283.228143,153.267274 C325.536147,146.278742 355.670846,158.585279 375.997724,182.740471 C397.654278,208.475767 408.007121,249.06053 408.007121,297 C408.007121,351.145583 385.02763,399.219054 347.765689,433.84956 C310.437422,468.541707 258.717247,489.729117 201.507121,489.729117 C144.296994,489.729117 92.5768186,468.541707 55.2485521,433.84956 C17.9866115,399.219054 -4.99287946,351.145583 -4.99287946,297 C-4.99287946,248.064392 8.3479607,205.575873 33.661317,179.696178 C46.0675108,167.012419 61.3336389,158.138767 79.4382661,154.159375 C95.8310858,150.556237 114.651163,150.980355 135.900053,156.601219 C138.148428,157.19597 141.722642,158.436181 146.254956,160.038057 C159.511089,164.723231 182.33239,172.978265 202.760251,173.428019 C221.627585,173.843416 247.979882,164.574281 265.114942,158.750733 C273.472258,155.910402 279.988678,153.802376 283.228143,153.267274 Z" id="Oval" stroke="#451E1E" stroke-width="23"></path>
        </g>
    </g>
</svg>